<?xml version="1.0" standalone="no"?>
<!DOCTYPE svg PUBLIC "-//W3C//DTD SVG 20010904//EN"
 "http://www.w3.org/TR/2001/REC-SVG-20010904/DTD/svg10.dtd">
<svg version="1.0" xmlns="http://www.w3.org/2000/svg"
 width="205.000000pt" height="204.000000pt" viewBox="0 0 205.000000 204.000000"
 preserveAspectRatio="xMidYMid meet">
<metadata>
Created by potrace 1.16, written by Peter Selinger 2001-2019
</metadata>
<g transform="translate(0.000000,204.000000) scale(0.100000,-0.100000)"
fill="#000000" stroke="none">
<path d="M875 2010 c-136 -28 -194 -48 -310 -107 -145 -73 -285 -199 -380
-343 -36 -53 -65 -100 -65 -103 0 -4 -11 -31 -25 -61 -24 -53 -48 -135 -65
-226 -11 -58 -11 -252 0 -310 23 -123 46 -194 92 -287 28 -57 54 -103 58 -103
4 0 11 -10 17 -23 24 -52 179 -212 247 -254 22 -14 43 -30 46 -34 13 -19 196
-101 268 -121 118 -31 159 -37 267 -37 106 0 143 5 270 37 101 26 177 61 285
131 239 156 396 398 451 691 10 59 10 233 -1 290 -34 181 -79 298 -158 413
-148 217 -354 363 -602 427 -93 24 -321 36 -395 20z m332 -85 c209 -40 391
-146 530 -309 24 -28 55 -69 68 -91 35 -59 95 -184 95 -198 0 -6 7 -25 15 -41
23 -43 37 -148 37 -281 1 -111 -14 -237 -31 -260 -4 -5 -15 -37 -26 -70 -11
-33 -22 -62 -25 -65 -3 -3 -24 -36 -45 -75 -21 -38 -48 -81 -59 -94 -37 -43
-140 -145 -171 -169 -63 -49 -189 -117 -248 -134 -23 -6 -46 -15 -52 -19 -37
-27 -344 -41 -451 -20 -115 22 -247 79 -348 148 -142 98 -284 279 -331 424
-10 30 -21 59 -26 65 -42 53 -42 495 0 549 5 6 11 24 15 40 18 78 100 216 181
307 41 46 151 141 190 165 109 66 198 102 315 128 83 18 272 18 367 0z"/>
<path d="M880 1820 c-85 -19 -131 -36 -217 -78 -84 -40 -115 -63 -206 -151
-104 -100 -157 -182 -207 -316 -30 -81 -40 -149 -40 -269 0 -133 21 -230 76
-345 33 -70 122 -196 151 -214 8 -5 10 -13 7 -19 -4 -6 -2 -8 4 -4 6 3 14 0
19 -7 15 -25 137 -114 198 -144 141 -71 174 -77 365 -77 159 0 181 2 240 23
87 32 175 76 233 117 26 19 49 34 51 34 6 0 113 110 107 110 -3 0 1 6 9 13 20
16 68 90 101 154 119 231 111 524 -20 760 -115 208 -343 371 -575 412 -68 12
-243 13 -296 1z m210 -55 c0 -3 -16 -19 -35 -36 -19 -17 -35 -37 -35 -45 0
-18 -19 -18 -63 1 -34 14 -90 17 -82 5 2 -4 -3 -19 -11 -34 -7 -16 -14 -54
-14 -86 l0 -57 -65 -38 c-36 -21 -110 -80 -166 -132 -55 -51 -104 -93 -109
-93 -5 0 -15 -7 -23 -15 -8 -8 -37 -20 -64 -27 -26 -7 -54 -17 -61 -22 -17
-13 -10 -68 14 -105 10 -14 18 -28 18 -31 0 -3 14 -16 31 -30 16 -14 32 -28
35 -31 14 -19 124 -68 176 -79 32 -7 63 -17 68 -22 6 -4 17 -8 25 -8 23 0 41
-47 41 -107 0 -64 -31 -132 -84 -182 -41 -39 -45 -56 -17 -70 27 -15 76 21
126 93 40 59 40 60 40 151 0 83 2 91 18 87 9 -2 17 -8 17 -12 0 -5 13 -11 29
-15 43 -9 145 -81 184 -129 76 -94 82 -111 82 -228 0 -72 -4 -111 -12 -119 -7
-7 -13 -26 -13 -41 0 -99 199 72 287 247 17 33 36 80 43 105 7 25 16 54 21 65
26 57 26 394 0 441 -5 11 -17 42 -26 70 -9 28 -28 71 -44 95 -31 49 -106 129
-121 129 -5 0 -14 19 -21 43 -18 67 -116 221 -156 247 -14 9 -10 10 22 7 128
-13 301 -96 397 -190 92 -91 102 -105 152 -201 66 -127 95 -236 95 -361 0
-121 -54 -309 -112 -390 -4 -5 -27 -37 -50 -70 -109 -151 -283 -251 -502 -287
-242 -40 -535 83 -698 292 -37 48 -102 183 -122 255 -42 148 -42 250 0 413 17
70 84 204 122 249 14 15 32 38 40 50 8 12 45 47 81 76 138 113 300 172 480
176 34 0 62 -1 62 -4z m47 -127 c35 -50 83 -150 83 -173 0 -8 27 -41 60 -72
76 -71 116 -144 143 -258 23 -97 27 -252 11 -335 l-10 -45 -12 46 c-36 139
-144 243 -284 272 -59 13 -77 12 -169 -4 -57 -11 -125 -24 -151 -30 -50 -11
-147 -10 -188 2 -14 4 -43 12 -65 18 -37 10 -126 75 -115 84 3 2 21 10 40 17
53 21 96 53 191 141 108 100 143 126 188 140 20 6 43 13 51 16 8 4 17 7 20 8
17 6 97 19 105 16 5 -1 7 0 4 4 -15 14 40 195 59 195 5 0 22 -19 39 -42z m49
-654 c68 -36 111 -80 131 -133 9 -25 20 -50 25 -55 11 -13 10 -159 -1 -171 -5
-6 -17 -35 -26 -65 -10 -30 -21 -57 -24 -60 -4 -3 -16 -20 -27 -38 l-21 -34
-6 81 c-6 100 -30 151 -106 233 -78 85 -161 136 -301 184 -41 15 -95 30 -120
34 -40 7 -37 8 35 9 44 1 114 10 155 20 41 11 111 20 156 20 69 1 88 -3 130
-25z"/>
</g>
</svg>
